<?xml version="1.0" encoding="utf-8"?>
<!-- Generator: Adobe Illustrator 15.1.0, SVG Export Plug-In . SVG Version: 6.00 Build 0)  -->
<!DOCTYPE svg PUBLIC "-//W3C//DTD SVG 1.1//EN" "http://www.w3.org/Graphics/SVG/1.1/DTD/svg11.dtd">
<svg version="1.1" id="Layer_1" xmlns="http://www.w3.org/2000/svg" xmlns:xlink="http://www.w3.org/1999/xlink" x="0px" y="0px"
	 width="22px" viewBox="0 0 612 792" enable-background="new 0 0 612 792" xml:space="preserve">
<path fill="#CA3342" fill-rule="evenodd" clip-rule="evenodd" stroke="#000000" stroke-width="3" stroke-linecap="round" stroke-linejoin="round" stroke-miterlimit="22.9256" d="
	M36.655,645.497c-0.659-28.858,0.206-86.261,14.31-143.861c14.104-57.601,41.449-115.398,80.603-168.535
	c39.153-53.137,90.115-101.612,147.945-139.499c57.832-37.887,122.531-65.184,176.969-78.997s98.615-14.141,100.758-1.424
	s-37.75,38.478-64.998,81.345s-41.854,102.841-40.751,164.047c1.104,61.207,17.914,123.645,42.572,174.14
	c24.657,50.495,57.162,89.048,73.563,112.021c16.4,22.973,16.698,30.369-57.833,35.962c-74.531,5.594-223.891,9.385-314.381,8.132
	c-90.491-1.252-122.113-7.548-139.015-10.853C39.495,674.669,37.314,674.355,36.655,645.497z"/>
</svg>
